<svg xmlns="http://www.w3.org/2000/svg" width="16" height="16" viewBox="0 0 16 16" fill="none">
<path d="M6.77775 0.09375H0.806641V0.2125L1.59825 0.966257V9.33285L6.24425 11.5406L9.10353 10.1674L5.87854 7.35201L5.1031 6.87255L4.90408 7.14182L5.01725 7.65864L4.02661 7.94409L3.71945 6.94279L4.26354 6.8023L4.44639 6.4204L4.10187 6.22639L4.93084 4.33642L5.46936 4.60068L5.61988 4.29907L4.44639 3.59381V2.52228L5.57138 3.40537L6.77775 0.09375Z" fill="#378CE7"/>
<path d="M10.1652 0.09375H11.6459L10.8437 0.879843V7.75007L6.69831 6.18904L6.39671 5.19834L6.06836 5.04725L6.28912 4.6542L7.4732 5.30036L8.41031 4.7618L7.14484 4.26673L10.1652 0.09375Z" fill="#378CE7"/>
</svg>