<?xml version="1.0" encoding="UTF-8"?>
<svg id="Layer_1" data-name="Layer 1" xmlns="http://www.w3.org/2000/svg" viewBox="0 0 1257.89 214.43">
  <defs>
    <style>
      .cls-1 {
        fill: none;
      }
      .cls-1, .cls-2, .cls-3, .cls-4 {
        stroke-width: 0px;
      }
      .cls-2 {
        fill: #5F8E25;
      }
      .cls-3 {
        fill: #2C450D;
      }
      .cls-4 {
        fill: #fff;
      }
    </style>
  </defs>
  <polygon class="cls-1" points="501.3 50.63 484.8 67.13 484.8 157.73 501.3 174.23 558.3 174.23 574.8 157.73 574.8 67.13 558.3 50.63 501.3 50.63"/>
  <polygon class="cls-3" points="122.7 50.03 144.3 10.43 39.6 10.43 61.8 50.03 122.7 50.03"/>
  <polygon class="cls-2" points="61.8 50.03 39.6 10.43 5.4 44.63 50.4 61.43 61.8 50.03"/>
  <polygon class="cls-2" points="50.4 80.93 5.4 97.43 36.6 128.63 58.8 89.33 50.4 80.93"/>
  <polygon class="cls-3" points="50.4 61.43 5.4 44.63 5.4 97.43 50.4 80.93 50.4 61.43"/>
  <polygon class="cls-3" points="133.2 163.43 178.2 180.23 178.2 125.93 133.2 142.43 133.2 163.43"/>
  <polygon class="cls-2" points="143.13 82.36 184.1 41.38 142.72 0 113.8 53.03 143.13 82.36"/>
  <polygon class="cls-2" points="30.6 151.73 0 182.33 32.1 214.43 53.7 174.83 30.6 151.73"/>
  <polygon class="cls-3" points="53.7 174.83 32.1 214.43 144 214.43 121.8 174.83 53.7 174.83"/>
  <polygon class="cls-2" points="121.8 174.83 144 214.43 178.2 180.23 133.2 163.43 121.8 174.83"/>
  <polygon class="cls-3" points="58.8 89.33 36.6 128.63 124.8 134.03 147 94.73 58.8 89.33"/>
  <polygon class="cls-2" points="124.8 134.03 133.2 142.43 178.2 125.93 147 94.73 124.8 134.03"/>
  <polygon class="cls-2" points="350.7 137.33 261.3 10.43 219.6 10.43 219.6 214.43 262.5 214.43 262.5 80.93 356.7 214.43 393.6 214.43 393.6 10.43 350.7 10.43 350.7 137.33"/>
  <path class="cls-2" d="M480,10.43l-40.2,40.2v123.6l40.2,40.2h99.6l40.2-40.2V50.63l-40.2-40.2h-99.6ZM574.8,157.73l-16.5,16.5h-57l-16.5-16.5v-90.6l16.5-16.5h57l16.5,16.5v90.6Z"/>
  <polygon class="cls-2" points="841.8 10.43 788.69 10.43 710.99 103.43 710.99 10.43 665.99 10.43 665.99 214.43 710.99 214.43 710.99 119.63 789.59 214.43 846.3 214.43 758.39 109.43 841.8 10.43"/>
  <polygon class="cls-2" points="876.59 214.43 1040.39 214.43 1040.39 174.23 921.59 174.23 921.59 132.23 1025.39 132.23 1025.39 92.03 921.59 92.03 921.59 50.63 1040.39 50.63 1040.39 10.43 876.59 10.43 876.59 214.43"/>
  <polygon class="cls-2" points="1214.99 10.43 1214.99 137.33 1125.59 10.43 1083.89 10.43 1083.89 214.43 1126.79 214.43 1126.79 80.93 1220.99 214.43 1257.89 214.43 1257.89 10.43 1214.99 10.43"/>
  <rect class="cls-4" x="140.48" y="58.19" width="10.07" height="10.07" transform="translate(87.33 -84.38) rotate(45)"/>
  <rect class="cls-4" x="159.88" y="38.79" width="10.07" height="10.07" transform="translate(79.29 -103.78) rotate(45)"/>
</svg>
