<?xml version="1.0" encoding="UTF-8"?><svg xmlns="http://www.w3.org/2000/svg" xmlns:xlink="http://www.w3.org/1999/xlink" viewBox="0 0 32 32" version="1.1"><path d="M13 4l-1.719 1.406-1.969-.062L10 7 8 8l1 1-1 2v1l1 1v1h2l1 1h1l.535 1H15v6.234l-2-1.199v-.488l-.453-.82.453-.82v-1.454L11 16l-1.637.727L9 16H8l-1 1H6l-1 1v1l.648 1-.648.363 1 1.91V23s.758.816 1 1c.453-.21 2.363-.727 2.363-.727L10 24l1-.688v-.636l.41-.266L15 24.566V25c0 1.105-.895 2-2 2h-1v2h8v-2h-1a1.984 1.984 0 0 1-1.688-.938l3.22-1.687.468.3v.637L22 26l.637-.727s1.91.516 2.363.727c.242-.184 1-1 1-1v-.727l1-1.91-.645-.363.645-1v-1l-1-1h-1l-1-1h-1l-.363.727L21 18l-2 1.453v1.457l.453.82-.453.817v.371l-2 1.047V15l1.25 1 1.168-.95L21 16l.668-1H23c0-.496-.332-1.766-.332-1.766L24 12l-.75-1.375.75-.656V9l-1-1V7l-1-2h-1l-1-1-1.332 1-1.336-1h-1.926l-1 .969zm3.219 2h.449l.8.602 1.2.898 1.145-.86.359.36h.594l.234.473v1.355l.594.594-.864.758.766 1.402.004.012-.191.176-.88.82.126.473-.164.246-1.149-.692-1.004.817-1.386-1.114-1.266 1.27-.414.41h-.438l-.539-1h-1.367l-1-1h-1l-.73-.73.691-1.375.645-1.29-.059-.058 1.188-.594-.313-.754.297-.246.558-.453.165.117 1.351.93 1.176-1.14zm-5.461 12.297l.21.152-.171.305-.54.973.43.77-.773.5-.148.097-.922.25c-.266.07-.594.16-.938.258l-.136-.258-.098-.188.805-.457L7.383 19h.445l.29-.29.312.618zm10.484 2l2.328 1.031.309-.621.293.293h.45l-1.102 1.7.808.452-.098.192-.136.258a73.443 73.443 0 0 0-.938-.262l-.922-.246-.148-.098-.773-.5.425-.77-.535-.972-.172-.305z" id="surface1"/><metadata><rdf:RDF xmlns:rdf="http://www.w3.org/1999/02/22-rdf-syntax-ns#" xmlns:rdfs="http://www.w3.org/2000/01/rdf-schema#" xmlns:dc="http://purl.org/dc/elements/1.1/"><rdf:Description about="https://iconscout.com/legal#licenses" dc:title="terraria" dc:description="terraria" dc:publisher="Iconscout" dc:date="2017-12-30" dc:format="image/svg+xml" dc:language="en"><dc:creator><rdf:Bag><rdf:li>Icons8</rdf:li></rdf:Bag></dc:creator></rdf:Description></rdf:RDF></metadata></svg>